<svg width="100" height="46" viewBox="0 0 100 46" fill="none" xmlns="http://www.w3.org/2000/svg">
<rect y="0.078125" width="100" height="45.9016" rx="22.9508" fill="#83CD3A"/>
<path fill-rule="evenodd" clip-rule="evenodd" d="M26.1043 31.8718C26.7054 32.1708 27.4573 32.3164 28.36 32.3085C30.1958 32.2925 31.5498 31.6822 32.4217 30.4777C33.3038 29.2629 33.7345 27.4738 33.7139 25.1105L33.6999 23.513C33.6796 21.1802 33.2181 19.4395 32.3154 18.291C31.4229 17.1424 30.1145 16.5756 28.3902 16.5907C27.4367 16.599 26.6521 16.7681 26.0362 17.0981C25.4305 17.428 24.9627 17.8733 24.6328 18.4341C24.3784 18.8666 24.1817 19.3379 24.0426 19.8479V19.8479C23.9913 20.0361 23.7836 19.9502 23.7848 19.7551L23.8073 16.2503L23.7799 13.1081C23.7742 12.4488 23.235 11.9189 22.5756 11.9246L19.608 11.9505C18.9486 11.9563 18.4187 12.4955 18.4245 13.1549L18.5788 30.8347C18.5845 31.4941 19.1237 32.024 19.7831 32.0182L22.7033 31.9927C23.3809 31.9868 23.9178 31.4188 23.8855 30.742L23.8126 29.2109C23.804 29.0311 23.9918 28.9505 24.0393 29.1241V29.1241C24.1899 29.6753 24.4028 30.1693 24.6782 30.6061C25.0278 31.1508 25.5032 31.5727 26.1043 31.8718ZM23.8331 26.1761C23.8349 26.3844 24.0232 26.5425 24.1118 26.7311V26.7311C24.2977 27.1048 24.5588 27.3916 24.8953 27.5915C25.242 27.7914 25.6587 27.8892 26.1456 27.8849C26.8657 27.8787 27.4065 27.6609 27.7679 27.2317C28.1292 26.7924 28.3062 26.1417 28.2986 25.2795L28.2827 23.4538C28.2751 22.5815 28.092 21.939 27.7333 21.5262C27.3746 21.1033 26.8352 20.895 26.115 20.9013C25.7296 20.9047 25.3752 20.9788 25.0519 21.1236C24.7286 21.2684 24.4513 21.4636 24.2202 21.709V21.709C24.0287 21.9039 23.7977 22.1172 23.8001 22.3903L23.8331 26.1761ZM43.9366 32.2185C41.0662 32.2435 38.951 31.6382 37.5911 30.4024C36.2414 29.1665 35.556 27.3466 35.535 24.9427L35.5248 23.7712C35.504 21.3876 36.117 19.5666 37.3638 18.308C38.6208 17.0494 40.4614 16.4095 42.8855 16.3883C44.4983 16.3743 45.8445 16.6313 46.9244 17.1595C48.0041 17.6776 48.8172 18.4363 49.3635 19.4358C49.9199 20.425 50.2042 21.6245 50.2165 23.0344L50.2207 23.506C50.2242 23.9117 50.2075 24.3278 50.1707 24.7541C50.1666 24.8174 50.1621 24.88 50.157 24.9419C50.111 25.5091 49.619 25.9153 49.0498 25.9203L47.7545 25.9316L46.4805 25.9427L41.2758 25.9881C40.959 25.9909 40.7141 26.275 40.829 26.5702V26.5702C40.9431 26.8634 41.1483 27.1253 41.4445 27.3561C41.7507 27.5765 42.1783 27.7503 42.7271 27.8774C43.2861 28.0044 44.0069 28.064 44.8893 28.0563C45.792 28.0485 46.6738 27.9698 47.5347 27.8202C47.7723 27.7762 48.0074 27.7279 48.2403 27.6754C49.0873 27.4843 49.9262 28.1554 49.8397 29.0194L49.6979 30.436C49.6572 30.8424 49.4138 31.2055 49.0345 31.3567C48.4724 31.5807 47.8373 31.7623 47.1291 31.9015C46.1672 32.1026 45.103 32.2083 43.9366 32.2185ZM45.284 22.7275V22.7275C45.2843 22.7611 45.2573 22.7886 45.2237 22.7889L40.6442 22.8288C40.619 22.829 40.5984 22.8088 40.5982 22.7836V22.7836C40.5913 22.0026 40.7686 21.3975 41.1301 20.9683C41.5016 20.539 42.0982 20.3208 42.9198 20.3136C43.4675 20.3088 43.9146 20.4013 44.2612 20.591C44.6076 20.7706 44.8636 21.0422 45.0291 21.406C45.1944 21.7595 45.2794 22.2 45.284 22.7275ZM65.0888 31.6408C65.7482 31.6351 66.2781 31.0959 66.2723 30.4365L66.2057 22.8061C66.1973 21.8425 66.0679 20.9612 65.8175 20.162C65.5772 19.3627 65.1807 18.6764 64.6279 18.1031C64.0751 17.5196 63.3307 17.0747 62.3948 16.7684C61.469 16.4519 60.3113 16.2997 58.9217 16.3118C58.1001 16.319 57.3247 16.3815 56.5954 16.4995C55.8661 16.6174 55.1929 16.7754 54.5759 16.9736C54.2073 17.0858 53.8586 17.2052 53.53 17.3316C53.1312 17.4849 52.8664 17.859 52.8243 18.2842L52.676 19.7827C52.5889 20.6631 53.4588 21.3351 54.3069 21.083C54.5621 21.0072 54.8203 20.9343 55.0815 20.8643C55.9923 20.6231 56.9397 20.4981 57.9235 20.4896C59.0088 20.4801 59.7761 20.6408 60.2253 20.9716C60.4358 21.1185 60.5987 21.3053 60.714 21.532C60.8715 21.8416 60.463 22.1148 60.1189 22.1617V22.1617L57.5152 22.5168C55.499 22.788 54.0324 23.2826 53.1156 24.0006C52.209 24.7186 51.7622 25.8282 51.7753 27.3293L51.7786 27.7097C51.7909 29.1195 52.1808 30.2066 52.9482 30.9708C53.7257 31.7248 54.865 32.0952 56.3662 32.0821C57.3906 32.0732 58.2109 31.9139 58.8269 31.6042C59.443 31.2945 59.911 30.8745 60.231 30.3443C60.5129 29.8914 60.7277 29.3837 60.8755 28.821V28.821C60.9179 28.6596 61.094 28.7484 61.0888 28.9152L61.0418 30.4348C61.0208 31.1124 61.5677 31.6716 62.2457 31.6657L65.0888 31.6408ZM60.4944 27.4054C60.7081 27.2068 61.0081 26.9908 61.0056 26.6991L60.9956 25.5573C60.9938 25.3466 60.7517 25.2099 60.5434 25.2421V25.2421L58.4395 25.567C57.8519 25.6533 57.4424 25.7989 57.2109 26.0038C56.9894 26.1984 56.8804 26.4885 56.8837 26.8739L56.8842 26.9348C56.8873 27.2898 57.0065 27.5778 57.2417 27.7989C57.4871 28.02 57.8887 28.128 58.4466 28.1232C58.9132 28.1191 59.3133 28.0547 59.6469 27.9301C59.9906 27.7952 60.2731 27.6203 60.4944 27.4054V27.4054ZM82.5458 31.5442C83.2052 31.5384 83.7351 30.9992 83.7293 30.3398L83.6565 21.9944C83.6451 20.686 83.4632 19.6072 83.1109 18.7583C82.7687 17.899 82.2407 17.2595 81.527 16.8397C80.8234 16.4198 79.9239 16.2146 78.8285 16.2242C77.8243 16.233 76.9991 16.4025 76.3528 16.7327C75.7166 17.0629 75.2184 17.5085 74.8581 18.0695C74.5592 18.5395 74.3347 19.0643 74.1846 19.6439V19.6439C74.1418 19.8089 73.9623 19.7188 73.9682 19.5485L74.0263 17.8772C74.0499 17.1978 73.5023 16.6359 72.8226 16.6418L69.9081 16.6672C69.2487 16.673 68.7188 17.2122 68.7245 17.8716L68.8345 30.4698C68.8402 31.1292 69.3795 31.6591 70.0389 31.6533L73.0368 31.6272C73.6962 31.6214 74.2261 31.0822 74.2204 30.4228L74.1474 22.0589C74.1452 21.8069 74.3957 21.6187 74.568 21.4347V21.4347C74.779 21.2096 75.031 21.0299 75.324 20.8955C75.617 20.7611 75.9512 20.6922 76.3264 20.689C76.8133 20.6847 77.1995 20.7726 77.4851 20.9527C77.7707 21.1328 77.9708 21.3948 78.0854 21.7387C78.2101 22.0825 78.2746 22.4927 78.2787 22.9695L78.3434 30.3868C78.3492 31.0462 78.8884 31.5761 79.5478 31.5704L82.5458 31.5442Z" fill="white"/>
</svg>
